# xmcd
#
# Track frame offsets:
#	150
#	16973
#	32572
#	50492
#	66661
#	80353
#	113913
#	131817
#	148963
#	169420
#	189869
#	210869
#	232192
#	247847
#	264439
#	281193
#	295209
#	314855
#	333191
#
# Disc length: 4685 seconds
#
# Revision: 0
# Processed by: cddbd v1.5.1PL0 Copyright (c) Steve Scherf et al.
# Submitted via: dBpowerAMP V4.0
#
DISCID=26124b13
DTITLE=Bruno and Marrone - Bruno and Marrone
DYEAR=2004
DGENRE=Country/Sertaneja
TTITLE0=Inevitavel
TTITLE1=Agora Vai - Passou da Conta
TTITLE2=Coraçao De Pedra
TTITLE3=Deixa
TTITLE4=Transito Parado
TTITLE5=O Amor Esta Aqui
TTITLE6=Credo em Cruz Ave Maria, Pra La Que Eu Vou
TTITLE7=Meu Disfarce
TTITLE8=Te Amar Foi Ilusão
TTITLE9=Sera
TTITLE10=Por Um Minuto
TTITLE11=Se Tiver Coragem Joga Fora
TTITLE12=Ligaçao Urbana
TTITLE13=Entao Pode Ir
TTITLE14=Sonhos perdidos
TTITLE15=Grito De Alerta
TTITLE16=Se Não Tivesse Ido
TTITLE17=Menina
TTITLE18=Vai Dar Namoro
EXTD=Bruno and Marrone - Sertanejo
EXTT0=
EXTT1=
EXTT2=
EXTT3=
EXTT4=
EXTT5=
EXTT6=
EXTT7=
EXTT8=
EXTT9=
EXTT10=
EXTT11=
EXTT12=
EXTT13=
EXTT14=
EXTT15=
EXTT16=
EXTT17=
EXTT18=
PLAYORDER=
